<svg width="32" height="32" viewBox="0 0 32 32" fill="none" xmlns="http://www.w3.org/2000/svg">
<path d="M25.6055 5.70499L19.1915 9.46061L19.2043 2.00195L25.6055 5.70499Z" fill="#E02882"/>
<path d="M19.1914 9.46065L12.6071 13.0012L12.7876 5.63196L19.1914 9.46065Z" fill="#FAA0C8"/>
<path d="M12.6456 12.9832L6.16804 16.5722L6.34855 9.20296L12.6456 12.9832Z" fill="#0C69EF"/>
<path d="M6.16255 16.573L12.628 20.4608L12.6394 12.9798L6.16255 16.573Z" fill="#4F93F6"/>
<path d="M19.1925 9.46173L12.7895 5.63303L19.2058 2.00393L19.1925 9.46173Z" fill="#F93F92"/>
<path d="M12.6428 12.9845L6.3447 9.20791L12.7907 5.63187L12.6428 12.9845Z" fill="#064DB3"/>
<path d="M6.27199 26.68L12.6445 22.8544L12.7133 30.3128L6.27199 26.68Z" fill="#B786E7"/>
<path d="M12.6435 22.8569L19.1886 19.2446L19.0887 26.6154L12.6435 22.8569Z" fill="#691DB3"/>
<path d="M19.1546 19.2602L25.5925 15.6006L25.4926 22.9713L19.1546 19.2602Z" fill="#5AD8D5"/>
<path d="M25.5908 15.6008L19.0832 11.784L19.1536 19.2647L25.5908 15.6008Z" fill="#32CECB"/>
<path d="M12.6429 22.8549L19.0874 26.6133L12.7112 30.3124L12.6429 22.8549Z" fill="#8E3DDD"/>
<path d="M19.1538 19.2595L25.4928 22.967L19.0864 26.6134L19.1538 19.2595Z" fill="#79DDDB"/>
</svg>
